<?xml version="1.0" standalone="no"?>
<!DOCTYPE svg PUBLIC "-//W3C//DTD SVG 20010904//EN"
 "http://www.w3.org/TR/2001/REC-SVG-20010904/DTD/svg10.dtd">
<svg version="1.0" xmlns="http://www.w3.org/2000/svg"
 width="32.000000pt" height="32.000000pt" viewBox="0 0 32.000000 32.000000"
 preserveAspectRatio="xMidYMid meet">

<g transform="translate(0.000000,32.000000) scale(0.100000,-0.100000)"
fill="#000000" stroke="none">
<path d="M130 288 c0 -7 7 -21 15 -32 12 -16 11 -22 -7 -47 l-22 -29 22 -23
22 -23 -21 -17 c-28 -25 -22 -67 13 -86 34 -19 47 -8 22 20 -18 20 -18 21 0
35 10 7 23 15 28 16 5 2 2 18 -8 35 -18 30 -18 32 -1 51 23 25 22 27 -15 72
-34 41 -48 49 -48 28z"/>
</g>
</svg>
